<svg width="175" height="69" viewBox="0 0 175 69" fill="none" xmlns="http://www.w3.org/2000/svg">
<g clip-path="url(#clip0_2286_3421)">
<path d="M33.839 55.2382C44.9128 55.2382 53.89 46.2611 53.89 35.1872C53.89 24.1134 44.9128 15.1362 33.839 15.1362C22.7651 15.1362 13.788 24.1134 13.788 35.1872C13.788 46.2611 22.7651 55.2382 33.839 55.2382Z" stroke="#F2712F" stroke-width="1.527"/>
<path d="M22.4931 52.177C19.4871 53.69 16.5121 54.16 15.1931 53.033C11.8841 50.215 16.6541 39.203 25.8401 28.462C35.0261 17.721 45.1641 11.292 48.4731 14.11C49.8511 15.289 49.8301 17.889 48.6611 21.302" stroke="#F2712F" stroke-width="1.527"/>
<path d="M44.983 52.177C47.989 53.69 51.1941 54.16 52.5191 53.033C55.8281 50.215 51.058 39.203 41.872 28.462C32.686 17.721 22.5561 11.292 19.2471 14.11C17.8691 15.289 17.8901 17.889 19.0591 21.302" stroke="#F2712F" stroke-width="1.527"/>
<path d="M53.484 31.993C57.91 33.141 59.392 34.446 59.392 36.366C59.392 40.312 47.91 43.432 33.757 43.432C19.604 43.432 8.17297 40.834 8.17297 36.613C8.17297 34.413 10.824 32.928 14.185 31.749" stroke="#F2712F" stroke-width="2.244"/>
<path d="M33.7659 67.5561C51.7947 67.5561 66.41 52.6843 66.41 34.3391C66.41 15.9938 51.7947 1.12207 33.7659 1.12207C15.7372 1.12207 1.12195 15.9938 1.12195 34.3391C1.12195 52.6843 15.7372 67.5561 33.7659 67.5561Z" stroke="#F2712F" stroke-width="2.244"/>
<path d="M23.276 48.2142L33.896 25.8042L44.527 48.2142H40.477L33.902 34.3212L27.336 48.2142H23.276Z" fill="#F56E1E"/>
<path d="M33.896 25.8042L23.276 48.2142H27.336L33.901 34.3212L40.478 48.2142H44.528L33.896 25.8042Z" stroke="#F2712F" stroke-width="1.497"/>
<path d="M148.797 25.1808C148.771 26.8668 149.081 28.5411 149.708 30.1063C150.335 31.6715 151.268 33.0962 152.451 34.2977C153.634 35.4991 155.044 36.4532 156.6 37.1045C158.155 37.7557 159.824 38.0911 161.511 38.0911C163.197 38.0911 164.866 37.7557 166.421 37.1045C167.977 36.4532 169.387 35.4991 170.57 34.2977C171.753 33.0962 172.686 31.6715 173.313 30.1063C173.94 28.5411 174.25 26.8668 174.224 25.1808C174.25 23.4948 173.94 21.8205 173.313 20.2553C172.686 18.6902 171.753 17.2654 170.57 16.064C169.387 14.8625 167.977 13.9084 166.421 13.2572C164.866 12.6059 163.197 12.2705 161.511 12.2705C159.824 12.2705 158.155 12.6059 156.6 13.2572C155.044 13.9084 153.634 14.8625 152.451 16.064C151.268 17.2654 150.335 18.6902 149.708 20.2553C149.081 21.8205 148.771 23.4948 148.797 25.1808ZM167.262 25.1808C167.314 25.9693 167.204 26.7601 166.938 27.5043C166.672 28.2484 166.256 28.93 165.715 29.5068C165.175 30.0837 164.523 30.5436 163.798 30.8579C163.073 31.1723 162.291 31.3345 161.501 31.3345C160.71 31.3345 159.928 31.1723 159.203 30.8579C158.478 30.5436 157.826 30.0837 157.286 29.5068C156.745 28.93 156.33 28.2484 156.064 27.5043C155.798 26.7601 155.687 25.9693 155.739 25.1808C155.687 24.3923 155.798 23.6015 156.064 22.8574C156.33 22.1132 156.745 21.4316 157.286 20.8548C157.826 20.2779 158.478 19.8181 159.203 19.5037C159.928 19.1893 160.71 19.0271 161.501 19.0271C162.291 19.0271 163.073 19.1893 163.798 19.5037C164.523 19.8181 165.175 20.2779 165.715 20.8548C166.256 21.4316 166.672 22.1132 166.938 22.8574C167.204 23.6015 167.314 24.3923 167.262 25.1808ZM133.913 37.6808H140.865V19.4188H147.618V12.6658H127.167V19.4188H133.92V37.6848L133.913 37.6808ZM112.359 32.3158V27.1528H116.127C116.482 27.1267 116.838 27.1739 117.173 27.2916C117.509 27.4093 117.816 27.595 118.077 27.8369C118.337 28.0789 118.545 28.3719 118.687 28.6978C118.829 29.0237 118.902 29.3753 118.902 29.7308C118.902 30.0863 118.829 30.438 118.687 30.7638C118.545 31.0897 118.337 31.3828 118.077 31.6247C117.816 31.8666 117.509 32.0523 117.173 32.17C116.838 32.2877 116.482 32.335 116.127 32.3088H112.359V32.3158ZM112.359 22.3898V18.0198H115.532C115.835 17.9931 116.14 18.0296 116.427 18.1271C116.715 18.2246 116.98 18.3809 117.204 18.586C117.428 18.7912 117.607 19.0408 117.729 19.3189C117.852 19.5969 117.915 19.8975 117.915 20.2013C117.915 20.5052 117.852 20.8057 117.729 21.0838C117.607 21.3618 117.428 21.6114 117.204 21.8166C116.98 22.0218 116.715 22.1781 116.427 22.2755C116.14 22.373 115.835 22.4096 115.532 22.3828H112.359V22.3898ZM105.407 37.6808H117.724C122.924 37.6808 126.064 34.5078 126.064 30.5308C126.079 29.6128 125.891 28.7029 125.513 27.8658C125.136 27.0288 124.579 26.2851 123.882 25.6878C123.224 25.1435 122.487 24.7015 121.697 24.3768C122.314 24.0716 122.877 23.6699 123.367 23.1868C123.908 22.6749 124.338 22.0583 124.632 21.3746C124.927 20.6908 125.079 19.9542 125.079 19.2098C125.079 15.5988 122.104 12.6548 116.937 12.6548H105.424V37.6848L105.407 37.6808ZM78.55 37.6808H85.897L87.285 33.1088H94.8321L96.2201 37.6808H103.567L95.0291 12.6608H87.0851L78.55 37.6808ZM88.8801 27.5598L91.062 20.4098L93.244 27.5598H88.8801Z" fill="#F56E1E"/>
<path d="M163.343 56.284H166.537L167.142 54.301H170.416L171.021 56.284H174.216L170.516 45.418H167.072L163.343 56.284ZM167.821 51.89L168.771 48.79L169.721 51.89H167.821ZM153.5 56.284H156.516V51.545L159.533 56.284H162.977L159.188 50.762L162.632 45.418H159.271L156.515 50.018V45.418H153.498L153.5 56.284ZM141.872 56.284H144.544L148.594 50.334V56.284H151.616V45.431H148.944L144.894 51.381V45.431H141.877L141.872 56.284ZM135.109 50.431V48.184H136.403C136.557 48.1727 136.711 48.1933 136.856 48.2443C137.001 48.2953 137.135 48.3758 137.247 48.4806C137.36 48.5854 137.45 48.7124 137.512 48.8535C137.573 48.9947 137.605 49.147 137.605 49.301C137.605 49.455 137.573 49.6073 137.512 49.7485C137.45 49.8896 137.36 50.0166 137.247 50.1214C137.135 50.2262 137.001 50.3067 136.856 50.3577C136.711 50.4087 136.557 50.4293 136.403 50.418H135.109V50.431ZM132.092 56.287H135.109V53.187H136.664C137.187 53.2076 137.708 53.1223 138.197 52.9365C138.686 52.7506 139.133 52.4679 139.51 52.1053C139.887 51.7427 140.187 51.3077 140.392 50.8263C140.597 50.345 140.703 49.8272 140.703 49.304C140.703 48.7808 140.597 48.2631 140.392 47.7817C140.187 47.3003 139.887 46.8653 139.51 46.5027C139.133 46.1401 138.686 45.8574 138.197 45.6715C137.708 45.4857 137.187 45.4005 136.664 45.421H132.092V56.284V56.287ZM125.078 56.287H128.095V48.351H131.028V45.418H122.145V48.351H125.078V56.284V56.287ZM112.312 56.287H115.329V51.545L118.346 56.284H121.79L118.001 50.762L121.445 45.418H118.084L115.328 50.018V45.418H112.316V56.284L112.312 56.287ZM102.438 56.287H110.716V53.612H105.455V52.057H110.11V49.468H105.455V48.091H110.538V45.418H102.438V56.287ZM90.215 56.287C90.3382 56.3238 90.4638 56.3519 90.591 56.371C90.8625 56.426 91.1389 56.4538 91.416 56.454C93.326 56.454 94.589 55.16 94.777 53.01L95.121 48.355H97.532V56.288H100.549V45.431H92.449L91.928 52.231C91.8547 53.1497 91.3953 53.609 90.55 53.609H90.206V56.281L90.215 56.287ZM79.016 52.662C79.3855 53.7508 80.0821 54.699 81.0107 55.3771C81.9392 56.0553 83.0544 56.4303 84.204 56.451C85.2448 56.4805 86.2734 56.2196 87.1743 55.6975C88.0752 55.1754 88.8129 54.4128 89.3048 53.495C89.7967 52.5773 90.0234 51.5407 89.9593 50.5014C89.8953 49.4621 89.5431 48.4611 88.9422 47.6107C88.3413 46.7603 87.5155 46.094 86.5573 45.6865C85.5991 45.279 84.5463 45.1463 83.517 45.3034C82.4876 45.4605 81.5223 45.9012 80.7293 46.576C79.9363 47.2508 79.3468 48.1331 79.027 49.124L82.127 49.385C82.2562 49.1511 82.4178 48.9367 82.607 48.748C82.8138 48.5375 83.061 48.3707 83.3336 48.2577C83.6062 48.1446 83.8988 48.0876 84.194 48.09C84.5392 48.079 84.8827 48.1423 85.2013 48.2754C85.52 48.4086 85.8063 48.6086 86.041 48.862C86.2454 49.0869 86.4064 49.3476 86.516 49.631H83.186V52.042H86.516C86.3386 52.5116 86.0187 52.9139 85.6013 53.1928C85.1839 53.4716 84.6897 53.6129 84.188 53.597C83.8963 53.6085 83.6053 53.5608 83.3326 53.4569C83.0598 53.3529 82.811 53.1948 82.601 52.992C82.4047 52.822 82.242 52.6168 82.121 52.387L79.016 52.662Z" fill="#F56E1E"/>
</g>
<defs>
<clipPath id="clip0_2286_3421">
<rect width="174.22" height="68.677" fill="white"/>
</clipPath>
</defs>
</svg>
