<svg width="25" height="24" viewBox="0 0 25 24" fill="none" xmlns="http://www.w3.org/2000/svg">
<path d="M13.9978 17.4443L21.969 22.395C22.0674 22.4562 22.1827 22.4921 22.3024 22.4988C22.422 22.5056 22.5414 22.4829 22.6477 22.4332C22.7539 22.3835 22.8429 22.3088 22.905 22.2171C22.9672 22.1254 23 22.0203 23 21.9131V6.19456C23 4.94949 22.4468 3.75541 21.4622 2.875C20.4776 1.9946 19.1422 1.5 17.7497 1.5H7.25029C5.85783 1.5 4.5224 1.9946 3.53778 2.875C2.55315 3.75541 2 4.94949 2 6.19456V21.912C2.00001 22.0192 2.03285 22.1244 2.09496 22.2161C2.15707 22.3078 2.24607 22.3825 2.35231 22.4322C2.45856 22.4818 2.57798 22.5045 2.69763 22.4978C2.81728 22.4911 2.93259 22.4552 3.03103 22.394L11.0034 17.4432C11.4431 17.1704 11.9656 17.0242 12.5008 17.0244C13.036 17.0246 13.5584 17.1711 13.9978 17.4443V17.4443Z" stroke="#6E7191" stroke-width="2" stroke-linecap="round" stroke-linejoin="round"/>
</svg>
