<svg width="25" height="24" viewBox="0 0 25 24" fill="none" xmlns="http://www.w3.org/2000/svg">
<path d="M20.6095 16.0804C18.2125 14.6632 15.4051 13.8472 12.5006 13.7234C9.5961 13.8472 6.7887 14.6632 4.39166 16.0804C3.78056 16.4768 3.27928 16.9849 2.92401 17.5682C2.56873 18.1515 2.36832 18.7954 2.33722 19.4534L2 22.5001H23L22.664 19.4534C22.6328 18.7954 22.4323 18.1515 22.0771 17.5682C21.7218 16.9849 21.2206 16.4768 20.6095 16.0804V16.0804Z" stroke="#6E7191" stroke-width="2" stroke-linecap="round" stroke-linejoin="round"/>
<path d="M12.5 10.5C13.39 10.5 14.26 10.2361 15.0001 9.74161C15.7401 9.24715 16.3169 8.54434 16.6575 7.72208C16.998 6.89981 17.0872 5.99501 16.9135 5.12209C16.7399 4.24918 16.3113 3.44736 15.682 2.81802C15.0526 2.18869 14.2508 1.7601 13.3779 1.58647C12.505 1.41283 11.6002 1.50195 10.7779 1.84254C9.95566 2.18314 9.25285 2.75991 8.75839 3.49994C8.26392 4.23996 8 5.10999 8 6C8 7.19347 8.47411 8.33807 9.31802 9.18198C10.1619 10.0259 11.3065 10.5 12.5 10.5V10.5Z" stroke="#6E7191" stroke-width="2" stroke-linecap="round" stroke-linejoin="round"/>
</svg>
