<svg width="30" height="30" viewBox="0 0 30 30" fill="none" xmlns="http://www.w3.org/2000/svg">
<g clip-path="url(#clip0_9_249)">
<path d="M22 0H8C3.58172 0 0 3.58172 0 8V22C0 26.4183 3.58172 30 8 30H22C26.4183 30 30 26.4183 30 22V8C30 3.58172 26.4183 0 22 0Z" fill="#FCE1D2"/>
<path d="M16.162 18.889L21.254 22.425C21.3168 22.4686 21.3904 22.4942 21.4668 22.499C21.5431 22.5038 21.6193 22.4876 21.6871 22.4522C21.7549 22.4167 21.8117 22.3634 21.8514 22.298C21.891 22.2325 21.912 22.1575 21.912 22.081V10.853C21.912 10.4127 21.8253 9.97667 21.6568 9.56986C21.4883 9.16306 21.2413 8.79343 20.9299 8.48207C20.6186 8.17072 20.2489 7.92374 19.8421 7.75523C19.4353 7.58673 18.9993 7.5 18.559 7.5H11.853C10.9637 7.5 10.1109 7.85326 9.48207 8.48207C8.85326 9.11088 8.5 9.96373 8.5 10.853V22.08C8.50003 22.1565 8.521 22.2315 8.56064 22.297C8.60028 22.3624 8.65708 22.4157 8.72488 22.4512C8.79267 22.4866 8.86888 22.5028 8.94523 22.498C9.02158 22.4932 9.09516 22.4676 9.158 22.424L14.25 18.889C14.5307 18.6941 14.8643 18.5896 15.206 18.5896C15.5477 18.5896 15.8813 18.6941 16.162 18.889Z" fill="#DE5703" stroke="#DE5703" stroke-width="2" stroke-linecap="round" stroke-linejoin="round"/>
</g>
<defs>
<clipPath id="clip0_9_249">
<rect width="30" height="30" fill="white"/>
</clipPath>
</defs>
</svg>
